# xmcd
#
# Track frame offsets: 
#        182
#        18382
#        42257
#        58742
#        77612
#        96687
#        117010
#        132612
#        149192
#        167447
#        182475
#        196565
#        215887
#        230912
#
# Disc length: 3274 seconds
#
# Revision: 4
# Processed by: cddbd v1.5.2PL0 Copyright (c) Steve Scherf et al.
# Submitted via: ExactAudioCopy v0.95b4
#
DISCID=d00cc80e
DTITLE=Papetti Fausto - My One And Only Love
DYEAR=1982
DGENRE=Blues
TTITLE0=Fausto Papetti - My One And Only Love
TTITLE1=Fausto Papetti - Private Investigation
TTITLE2=Fausto Papetti - Samba De Una Nota
TTITLE3=Fausto Papetti - My Way
TTITLE4=Fausto Papetti - Tutta 'N' Ata Storia
TTITLE5=Fausto Papetti - Eye In The Sky
TTITLE6=Fausto Papetti - Blue Eyes
TTITLE7=Fausto Papetti - Consuelo
TTITLE8=Fausto Papetti - Hard To Say I'm Sorry
TTITLE9=Fausto Papetti - Ebony And Ibory
TTITLE10=Fausto Papetti - L' Immensita
TTITLE11=Fausto Papetti - Reality
TTITLE12=Fausto Papetti - Primo Amore
TTITLE13=Fausto Papetti - Theme From Paradise
EXTD=
EXTT0=
EXTT1=
EXTT2=
EXTT3=
EXTT4=
EXTT5=
EXTT6=
EXTT7=
EXTT8=
EXTT9=
EXTT10=
EXTT11=
EXTT12=
EXTT13=
PLAYORDER=
